# xmcd
#
# Track frame offsets:
#	150
#	19173
#	36463
#	54304
#	75043
#	102808
#	115632
#	128114
#	145934
#	164914
#	184489
#	200557
#	219418
#	244780
#	257542
#	267235
#	283731
#	319853
#
# Disc length: 4427
#
# Revision: 2
# Processed by: cddbd v1.5.1PL0 Copyright (c) Steve Scherf et al.
# Submitted via: EasyCDDAExtractor 6.0.0.1
# Normalized: r1:TDELIM( - )
#
DISCID=06114912
DTITLE=Various Artist - Summer in the City
DYEAR=1900
DGENRE=
TTITLE0=Kool and the Gang - Summer Madness
TTITLE1=Roy Ayers - Everybody Loves The Sunshine
TTITLE2=Quincy Jones - Summer in the City
TTITLE3=Angie Stone - No More Rain (In This Cloud)
TTITLE4=Patti Jo - Make Me Believe In You
TTITLE5=Marlena Shaw - California Soul
TTITLE6=Gwen McCrae - 90% Of Me Is You
TTITLE7=Marvin Gaye - Got to Give it Up
TTITLE8=Nikka Costa - Everybody Got Their Something
TTITLE9=Angie Stone - Wish I Didn't Miss You
TTITLE10=Bill Withers - Use Me Up
TTITLE11=Sister Sledge - Thinking of You
TTITLE12=Indeep - Last Night A DJ Saved My Life
TTITLE13=Booker T. and The MG's - Soul Dressing
TTITLE14=Anne Sexton - You've Been Gone Too Long
TTITLE15=Roy Ayers - Shining Symbol
TTITLE16=Norma Jean Bell - I'm the Baddest Bitch
TTITLE17=Natalie Cole - This Will Be
EXTD=
EXTT0=
EXTT1=
EXTT2=
EXTT3=
EXTT4=
EXTT5=
EXTT6=
EXTT7=
EXTT8=
EXTT9=
EXTT10=
EXTT11=
EXTT12=
EXTT13=
EXTT14=
EXTT15=
EXTT16=
EXTT17=
PLAYORDER=
